<svg width="45" height="24" viewBox="0 0 45 24" fill="none" xmlns="http://www.w3.org/2000/svg">
<path d="M43.9908 11.1785C43.6009 10.9126 43.1569 10.7796 42.6588 10.7796H37.7298C37.1146 10.7796 36.5887 10.9869 36.1522 11.4001C35.7142 11.8141 35.4964 12.3279 35.4964 12.9424C35.4964 13.439 35.7142 13.8883 36.1522 14.2894C36.5894 14.6921 37.1153 14.8919 37.7298 14.8919H40.4103C40.5358 14.8919 40.6372 14.9933 40.6372 15.1188V17.4116C40.6372 17.4777 40.6094 17.5416 40.5606 17.5859C39.5231 18.5092 38.0356 18.9697 36.0989 18.9697C34.8225 18.9697 33.6641 18.6451 32.6243 17.9946C31.5839 17.3447 30.7627 16.4643 30.1595 15.3532C29.557 14.2428 29.2557 13.0371 29.2557 11.7367C29.2557 11.6458 29.2602 11.5571 29.2632 11.4677C29.3128 9.83379 29.7403 8.89173 29.7403 8.89173C29.8635 8.55893 30.007 8.23589 30.1775 7.92563C30.792 6.80327 31.6259 5.93408 32.6777 5.31956C33.7294 4.70504 34.8698 4.39778 36.0996 4.39778C37.7539 4.39778 39.3849 5.05963 40.9933 6.38332C41.5132 6.76195 42.0924 6.95051 42.7309 6.95051C43.4161 6.95051 43.9239 6.71462 44.2552 6.24134C44.5392 5.83942 44.6812 5.41422 44.6812 4.96497C44.6812 4.23251 44.3739 3.59395 43.7594 3.05005C42.5769 1.963 41.3832 1.18321 40.1782 0.709926C38.9717 0.236642 37.5999 0 36.0636 0C33.9834 0 32.0684 0.537891 30.3195 1.61367C28.5698 2.68945 27.1868 4.12583 26.1703 5.92206C25.7714 6.62673 25.4559 7.35393 25.2147 8.10292C25.1772 8.21861 25.0577 8.28547 24.9405 8.25392C18.0831 6.3698 11.8575 1.34773 0.350546 6.82205C-0.101708 7.03691 -0.120489 7.67546 0.318242 7.91586C9.27242 12.8313 13.2608 21.9619 20.255 23.5455C25.4123 24.7137 33.148 22.6027 40.227 23.9925C40.5718 24.0601 40.7965 23.6529 40.5673 23.387C40.3675 23.1549 40.1579 22.9362 39.9393 22.7304C39.9994 22.7101 40.064 22.6958 40.1233 22.6748C41.3404 22.2376 42.5995 21.4991 43.8999 20.4586C44.6324 19.9155 44.999 19.171 44.999 18.2244V13.2294C44.9997 12.4263 44.6549 11.6308 43.9908 11.1785ZM26.6421 18.89C26.5542 18.878 26.4716 18.8622 26.3844 18.8495C26.4618 18.8683 26.5287 18.893 26.6076 18.9111C13.1647 17.8781 10.1499 7.23448 24.4327 11.802C24.4334 11.802 24.4334 11.802 24.4342 11.802C24.4349 11.802 24.4349 11.8028 24.4357 11.8028C24.4778 11.8163 24.5161 11.8261 24.5589 11.8404C24.5416 11.8389 24.5281 11.8404 24.5108 11.8389C24.5882 11.8772 24.6498 11.9433 24.652 12.0334C24.6994 14.0009 25.2155 15.834 26.2056 17.5333C26.4077 17.8796 26.6241 18.2109 26.8532 18.5287C26.9719 18.6925 26.8419 18.9178 26.6421 18.89Z" fill="url(#paint0_radial)"/>
<path d="M26.6045 18.9096C26.5286 18.8923 26.4648 18.869 26.3912 18.851C26.4032 18.854 26.4107 18.8555 26.3814 18.848C19.092 17.0833 18.7877 11.3671 24.5078 11.8374C24.5251 11.8389 24.5386 11.8374 24.5559 11.8389C24.513 11.8253 24.4747 11.8148 24.4326 11.8013C24.4319 11.8013 24.4319 11.8006 24.4311 11.8006C24.4304 11.8006 24.4304 11.8006 24.4296 11.8006C23.9834 11.6578 23.5537 11.5301 23.1412 11.4159C11.9281 8.32455 12.8536 15.5711 21.9941 18.0975C23.3523 18.4896 24.8932 18.7781 26.6045 18.9096Z" fill="url(#paint1_radial)"/>
<defs>
<radialGradient id="paint0_radial" cx="0" cy="0" r="1" gradientUnits="userSpaceOnUse" gradientTransform="translate(26.1471 -14.2305) scale(46.0034 46.0029)">
<stop stop-color="#FFFF13"/>
<stop offset="0.1181" stop-color="#FDF912"/>
<stop offset="0.2682" stop-color="#F8EA11"/>
<stop offset="0.4357" stop-color="#EED00E"/>
<stop offset="0.6158" stop-color="#E2AB0A"/>
<stop offset="0.806" stop-color="#D17D06"/>
<stop offset="1" stop-color="#BE4500"/>
</radialGradient>
<radialGradient id="paint1_radial" cx="0" cy="0" r="1" gradientUnits="userSpaceOnUse" gradientTransform="translate(20.7695 14.7864) scale(16.3764 13.2156)">
<stop offset="0.1069" stop-color="#E6AC46"/>
<stop offset="0.5493" stop-color="#A62A30"/>
</radialGradient>
</defs>
</svg>
